<svg id="visual" viewBox="0 0 900 600" width="900" height="600" xmlns="http://www.w3.org/2000/svg" xmlns:xlink="http://www.w3.org/1999/xlink" version="1.1"><rect x="0" y="0" width="900" height="600" fill="#001220"></rect><path d="M0 136L21.5 133.5C43 131 86 126 128.8 140C171.7 154 214.3 187 257.2 184.8C300 182.7 343 145.3 385.8 132.8C428.7 120.3 471.3 132.7 514.2 141.2C557 149.7 600 154.3 642.8 162.5C685.7 170.7 728.3 182.3 771.2 188.7C814 195 857 196 878.5 196.5L900 197L900 601L878.5 601C857 601 814 601 771.2 601C728.3 601 685.7 601 642.8 601C600 601 557 601 514.2 601C471.3 601 428.7 601 385.8 601C343 601 300 601 257.2 601C214.3 601 171.7 601 128.8 601C86 601 43 601 21.5 601L0 601Z" fill="#3c2fe9"></path><path d="M0 296L21.5 294.2C43 292.3 86 288.7 128.8 274.5C171.7 260.3 214.3 235.7 257.2 224.2C300 212.7 343 214.3 385.8 219.2C428.7 224 471.3 232 514.2 232.5C557 233 600 226 642.8 218.3C685.7 210.7 728.3 202.3 771.2 199.3C814 196.3 857 198.7 878.5 199.8L900 201L900 601L878.5 601C857 601 814 601 771.2 601C728.3 601 685.7 601 642.8 601C600 601 557 601 514.2 601C471.3 601 428.7 601 385.8 601C343 601 300 601 257.2 601C214.3 601 171.7 601 128.8 601C86 601 43 601 21.5 601L0 601Z" fill="#1d51f5"></path><path d="M0 275L21.5 285.7C43 296.3 86 317.7 128.8 318.5C171.7 319.3 214.3 299.7 257.2 294.8C300 290 343 300 385.8 309.5C428.7 319 471.3 328 514.2 332.3C557 336.7 600 336.3 642.8 327.3C685.7 318.3 728.3 300.7 771.2 289.3C814 278 857 273 878.5 270.5L900 268L900 601L878.5 601C857 601 814 601 771.2 601C728.3 601 685.7 601 642.8 601C600 601 557 601 514.2 601C471.3 601 428.7 601 385.8 601C343 601 300 601 257.2 601C214.3 601 171.7 601 128.8 601C86 601 43 601 21.5 601L0 601Z" fill="#006bfd"></path><path d="M0 403L21.5 395.3C43 387.7 86 372.3 128.8 374.3C171.7 376.3 214.3 395.7 257.2 396.7C300 397.7 343 380.3 385.8 378.8C428.7 377.3 471.3 391.7 514.2 389.7C557 387.7 600 369.3 642.8 360C685.7 350.7 728.3 350.3 771.2 354.2C814 358 857 366 878.5 370L900 374L900 601L878.5 601C857 601 814 601 771.2 601C728.3 601 685.7 601 642.8 601C600 601 557 601 514.2 601C471.3 601 428.7 601 385.8 601C343 601 300 601 257.2 601C214.3 601 171.7 601 128.8 601C86 601 43 601 21.5 601L0 601Z" fill="#0082ff"></path><path d="M0 457L21.5 448.5C43 440 86 423 128.8 420C171.7 417 214.3 428 257.2 436C300 444 343 449 385.8 451.3C428.7 453.7 471.3 453.3 514.2 456.3C557 459.3 600 465.7 642.8 466.5C685.7 467.3 728.3 462.7 771.2 461.7C814 460.7 857 463.3 878.5 464.7L900 466L900 601L878.5 601C857 601 814 601 771.2 601C728.3 601 685.7 601 642.8 601C600 601 557 601 514.2 601C471.3 601 428.7 601 385.8 601C343 601 300 601 257.2 601C214.3 601 171.7 601 128.8 601C86 601 43 601 21.5 601L0 601Z" fill="#2b98ff"></path><path d="M0 500L21.5 502.5C43 505 86 510 128.8 511.7C171.7 513.3 214.3 511.7 257.2 508.8C300 506 343 502 385.8 500.5C428.7 499 471.3 500 514.2 502.2C557 504.3 600 507.7 642.8 513.7C685.7 519.7 728.3 528.3 771.2 523.2C814 518 857 499 878.5 489.5L900 480L900 601L878.5 601C857 601 814 601 771.2 601C728.3 601 685.7 601 642.8 601C600 601 557 601 514.2 601C471.3 601 428.7 601 385.8 601C343 601 300 601 257.2 601C214.3 601 171.7 601 128.8 601C86 601 43 601 21.5 601L0 601Z" fill="#52abfd"></path></svg>