<svg id="visual" viewBox="0 0 900 600" width="900" height="600" xmlns="http://www.w3.org/2000/svg" xmlns:xlink="http://www.w3.org/1999/xlink" version="1.1"><rect x="0" y="0" width="900" height="600" fill="#001220"></rect><path d="M0 132L21.5 145C43 158 86 184 128.8 197.2C171.7 210.3 214.3 210.7 257.2 213.3C300 216 343 221 385.8 209C428.7 197 471.3 168 514.2 165C557 162 600 185 642.8 193.3C685.7 201.7 728.3 195.3 771.2 180C814 164.7 857 140.3 878.5 128.2L900 116L900 601L878.5 601C857 601 814 601 771.2 601C728.3 601 685.7 601 642.8 601C600 601 557 601 514.2 601C471.3 601 428.7 601 385.8 601C343 601 300 601 257.2 601C214.3 601 171.7 601 128.8 601C86 601 43 601 21.5 601L0 601Z" fill="#3c2fe9"></path><path d="M0 296L21.5 294.3C43 292.7 86 289.3 128.8 278.3C171.7 267.3 214.3 248.7 257.2 243.3C300 238 343 246 385.8 250.3C428.7 254.7 471.3 255.3 514.2 256.7C557 258 600 260 642.8 258.3C685.7 256.7 728.3 251.3 771.2 250.8C814 250.3 857 254.7 878.5 256.8L900 259L900 601L878.5 601C857 601 814 601 771.2 601C728.3 601 685.7 601 642.8 601C600 601 557 601 514.2 601C471.3 601 428.7 601 385.8 601C343 601 300 601 257.2 601C214.3 601 171.7 601 128.8 601C86 601 43 601 21.5 601L0 601Z" fill="#1d51f5"></path><path d="M0 323L21.5 326.2C43 329.3 86 335.7 128.8 329.3C171.7 323 214.3 304 257.2 292.2C300 280.3 343 275.7 385.8 287C428.7 298.3 471.3 325.7 514.2 340C557 354.3 600 355.7 642.8 339.2C685.7 322.7 728.3 288.3 771.2 274.2C814 260 857 266 878.5 269L900 272L900 601L878.5 601C857 601 814 601 771.2 601C728.3 601 685.7 601 642.8 601C600 601 557 601 514.2 601C471.3 601 428.7 601 385.8 601C343 601 300 601 257.2 601C214.3 601 171.7 601 128.8 601C86 601 43 601 21.5 601L0 601Z" fill="#006bfd"></path><path d="M0 368L21.5 377C43 386 86 404 128.8 412C171.7 420 214.3 418 257.2 405.3C300 392.7 343 369.3 385.8 363.5C428.7 357.7 471.3 369.3 514.2 373.2C557 377 600 373 642.8 371.7C685.7 370.3 728.3 371.7 771.2 376.5C814 381.3 857 389.7 878.5 393.8L900 398L900 601L878.5 601C857 601 814 601 771.2 601C728.3 601 685.7 601 642.8 601C600 601 557 601 514.2 601C471.3 601 428.7 601 385.8 601C343 601 300 601 257.2 601C214.3 601 171.7 601 128.8 601C86 601 43 601 21.5 601L0 601Z" fill="#0082ff"></path><path d="M0 424L21.5 427.8C43 431.7 86 439.3 128.8 444.5C171.7 449.7 214.3 452.3 257.2 458.5C300 464.7 343 474.3 385.8 476.3C428.7 478.3 471.3 472.7 514.2 460.8C557 449 600 431 642.8 427C685.7 423 728.3 433 771.2 438.2C814 443.3 857 443.7 878.5 443.8L900 444L900 601L878.5 601C857 601 814 601 771.2 601C728.3 601 685.7 601 642.8 601C600 601 557 601 514.2 601C471.3 601 428.7 601 385.8 601C343 601 300 601 257.2 601C214.3 601 171.7 601 128.8 601C86 601 43 601 21.5 601L0 601Z" fill="#2b98ff"></path><path d="M0 543L21.5 540.7C43 538.3 86 533.7 128.8 530.8C171.7 528 214.3 527 257.2 519.8C300 512.7 343 499.3 385.8 499.8C428.7 500.3 471.3 514.7 514.2 515.8C557 517 600 505 642.8 505.7C685.7 506.3 728.3 519.7 771.2 524.3C814 529 857 525 878.5 523L900 521L900 601L878.5 601C857 601 814 601 771.2 601C728.3 601 685.7 601 642.8 601C600 601 557 601 514.2 601C471.3 601 428.7 601 385.8 601C343 601 300 601 257.2 601C214.3 601 171.7 601 128.8 601C86 601 43 601 21.5 601L0 601Z" fill="#52abfd"></path></svg>